<?xml version="1.0" encoding="UTF-8" standalone="no"?>

<svg
   xmlns:dc="http://purl.org/dc/elements/1.1/"
   xmlns:cc="http://creativecommons.org/ns#"
   xmlns:rdf="http://www.w3.org/1999/02/22-rdf-syntax-ns#"
   xmlns:svg="http://www.w3.org/2000/svg"
   xmlns="http://www.w3.org/2000/svg"
   xmlns:sodipodi="http://sodipodi.sourceforge.net/DTD/sodipodi-0.dtd"
   xmlns:inkscape="http://www.inkscape.org/namespaces/inkscape"
   version="1.1"
   id="snake"
   x="0px"
   y="0px"
   width="512px"
   height="512px"
   viewBox="0 0 512 512"
   enable-background="new 0 0 512 512"
   xml:space="preserve"
   inkscape:version="0.48.4 r9939"
   sodipodi:docname="razercfg-snake.svg"><metadata
     id="metadata24"><rdf:RDF><cc:Work
         rdf:about=""><dc:format>image/svg+xml</dc:format><dc:type
           rdf:resource="http://purl.org/dc/dcmitype/StillImage" /><dc:title></dc:title></cc:Work></rdf:RDF></metadata><defs
     id="defs22" /><sodipodi:namedview
     pagecolor="#ffffff"
     bordercolor="#666666"
     borderopacity="1"
     objecttolerance="10"
     gridtolerance="10"
     guidetolerance="10"
     inkscape:pageopacity="0"
     inkscape:pageshadow="2"
     inkscape:window-width="640"
     inkscape:window-height="480"
     id="namedview20"
     showgrid="false"
     inkscape:zoom="0.4609375"
     inkscape:cx="256"
     inkscape:cy="256"
     inkscape:window-x="453"
     inkscape:window-y="147"
     inkscape:window-maximized="0"
     inkscape:current-layer="snake" /><g
     id="g3"><linearGradient
       id="SVGID_1_"
       gradientUnits="userSpaceOnUse"
       x1="135.4805"
       y1="46.395"
       x2="379.4766"
       y2="469.0087"><stop
         offset="0"
         style="stop-color:#7ABD6A"
         id="stop6" /><stop
         offset="0.391"
         style="stop-color:#4E9F4D"
         id="stop8" /><stop
         offset="0.7754"
         style="stop-color:#258A3C"
         id="stop10" /><stop
         offset="1"
         style="stop-color:#0A8336"
         id="stop12" /></linearGradient><path
       fill="url(#SVGID_1_)"
       d="M257.479,501.593c-65.146,0-126.393-25.369-172.458-71.434   c-46.065-46.064-71.435-107.311-71.435-172.457c0-65.146,25.369-126.392,71.435-172.457   c46.065-46.065,107.312-71.434,172.458-71.434c65.146,0,126.394,25.369,172.458,71.434   c46.065,46.064,71.435,107.311,71.435,172.457c0,65.146-25.369,126.393-71.435,172.457   C383.872,476.224,322.625,501.593,257.479,501.593z"
       id="path14" /><path
       fill="#FFFFFF"
       d="M257.479,15.812c32.657,0,64.336,6.395,94.154,19.007c28.805,12.183,54.674,29.625,76.89,51.841   c22.217,22.216,39.658,48.085,51.841,76.889c12.613,29.818,19.008,61.497,19.008,94.153c0,32.657-6.395,64.335-19.008,94.154   c-12.183,28.804-29.624,54.673-51.841,76.889c-22.216,22.216-48.085,39.658-76.89,51.841   c-29.818,12.612-61.497,19.007-94.154,19.007c-32.657,0-64.335-6.395-94.154-19.007c-28.804-12.183-54.673-29.625-76.89-51.841   s-39.658-48.085-51.841-76.889c-12.612-29.819-19.007-61.497-19.007-94.154c0-32.657,6.395-64.334,19.007-94.153   c12.183-28.804,29.625-54.673,51.841-76.889c22.216-22.216,48.085-39.658,76.89-51.841   C193.144,22.207,224.822,15.812,257.479,15.812 M257.479,11.812c-135.802,0-245.892,110.089-245.892,245.891   c0,135.804,110.09,245.891,245.892,245.891c135.804,0,245.893-110.087,245.893-245.891   C503.371,121.9,393.282,11.812,257.479,11.812L257.479,11.812z"
       id="path16" /></g><path
     fill="#FFFFFF"
     d="M443.609,262.795c-0.21-12.996-1.652-23.62-4.359-36.321c-2.708-12.695-6.663-25.116-11.794-37.007  c-5.13-11.89-11.428-23.251-18.757-33.872c-7.327-10.63-15.728-20.482-24.963-29.433c-18.498-17.885-40.47-32.044-64.265-41.413  c-11.892-4.696-24.241-8.157-36.779-10.395l-4.718-0.75l-2.358-0.374l-1.181-0.185l-1.183-0.136l-4.747-0.511l-2.366-0.255  c-0.79-0.084-1.58-0.183-2.374-0.214c-3.171-0.173-6.343-0.383-9.509-0.517l-9.71-0.057l-9.127,0.413  c-3.168,0.246-6.42,0.576-9.616,0.876c-0.81,0.061-1.586,0.19-2.37,0.303l-2.35,0.342l-4.695,0.689l-1.171,0.177l-1.164,0.232  l-2.327,0.462l-4.649,0.935c-12.35,2.706-24.406,6.634-35.937,11.691c-11.528,5.06-22.533,11.248-32.806,18.439  c-10.26,7.208-19.789,15.401-28.412,24.422c-8.608,9.035-16.338,18.877-22.972,29.384c-6.65,10.495-12.244,21.622-16.678,33.162  c-4.442,11.54-7.687,23.5-9.749,35.622c-2.054,12.125-2.887,24.424-2.524,36.65h1.31c0.39-12.142,1.926-24.208,4.596-35.982  c2.664-11.774,6.504-23.243,11.382-34.213s10.829-21.425,17.728-31.183c6.905-9.752,14.703-18.832,23.313-27.034  c8.615-8.196,18.012-15.531,28.003-21.866c9.986-6.353,20.566-11.711,31.544-15.967c10.98-4.262,22.354-7.421,33.902-9.436  l4.348-0.672l2.168-0.34l1.084-0.169l1.094-0.118l4.366-0.462l2.185-0.236c0.725-0.075,1.46-0.169,2.17-0.188  c2.874-0.144,5.692-0.336,8.605-0.46l9.138-0.049c-0.347,0.006-0.014,0.006-0.06,0.008l0.139,0.004l0.274,0.014l0.545,0.027  l1.098,0.049l2.187,0.102l4.375,0.199c2.906,0.238,5.813,0.556,8.711,0.821c0.727,0.051,1.442,0.179,2.169,0.281l2.157,0.32  l4.323,0.639l1.077,0.163l1.07,0.216l2.138,0.424l4.282,0.858c11.359,2.482,22.441,6.105,33.054,10.73  c21.237,9.245,40.54,22.709,56.504,39.281c7.983,8.286,15.109,17.358,21.325,26.982c6.207,9.632,11.459,19.856,15.648,30.476  c4.191,10.619,7.315,21.634,9.335,32.832c2.021,11.202,2.939,22.063,2.761,33.426l-0.006,0.522L443.609,262.795z M418.044,265.155  c-0.208,7.718-0.892,15.437-2.122,23.028c-1.336,7.579-3.232,15.042-5.625,22.334l-1.93,5.425c-0.678,1.794-1.448,3.549-2.168,5.329  c-0.688,1.788-1.542,3.506-2.354,5.238c-0.817,1.733-1.604,3.482-2.537,5.156c-3.468,6.83-7.578,13.32-12.094,19.482  c-4.518,6.168-9.455,12.031-14.902,17.384c-5.423,5.37-11.192,10.382-17.334,14.888c-6.166,4.469-12.643,8.484-19.366,12.008  l-5.105,2.531c-1.711,0.808-3.47,1.522-5.203,2.299c-1.723,0.8-3.511,1.428-5.279,2.101c-1.772,0.676-3.531,1.375-5.351,1.917  c-7.16,2.473-14.553,4.217-21.996,5.506l-2.798,0.466l-1.396,0.234l-1.411,0.165l-5.632,0.646c-1.821,0.15-3.586,0.228-5.374,0.357  l-1.344,0.094l-0.664,0.048c-0.235,0.01-0.519,0.01-0.772,0.014l-3.142,0.047l-3.138,0.039l-0.788,0.012l-0.394,0.008  c-0.495,0.004,0.232-0.002,0.032-0.008l-1.415-0.057l-5.667-0.208c-1.881-0.138-3.763-0.332-5.644-0.487  c-0.938-0.095-1.881-0.124-2.814-0.279l-2.799-0.395c-3.748-0.435-7.429-1.238-11.127-1.928l-5.484-1.339l-1.371-0.324  c-0.452-0.125-0.9-0.267-1.353-0.398l-2.7-0.802c-14.424-4.25-28.073-10.921-40.472-19.339c-6.16-4.27-11.999-8.991-17.49-14.088  l-4.026-3.912c-1.311-1.339-2.56-2.733-3.843-4.094c-1.316-1.334-2.48-2.8-3.697-4.219l-1.815-2.134  c-0.606-0.715-1.15-1.479-1.722-2.21l-1.712-2.221c-0.569-0.743-1.158-1.472-1.672-2.252l-3.202-4.598  c-1.993-3.156-4.04-6.278-5.798-9.575c-3.616-6.516-6.835-13.264-9.356-20.267c-0.703-1.727-1.24-3.509-1.828-5.275l-0.872-2.648  c-0.313-0.875-0.506-1.788-0.763-2.681c-0.48-1.796-1.015-3.578-1.45-5.382l-1.205-5.445c-0.225-0.903-0.364-1.825-0.515-2.742  l-0.466-2.745l-0.466-2.747l-0.321-2.771l-0.326-2.771l-0.171-1.382c-0.055-0.462-0.06-0.88-0.095-1.32l-0.359-5.215  c-0.013-0.22-0.037-0.421-0.046-0.66l-0.015-0.784l-0.025-1.571l-0.054-3.141l-0.025-1.569l-0.017-0.786v-0.037  c-0.003-0.032-0.003-0.122-0.007-0.356l0.007,0.356c0.004,0.064,0.004-0.301,0.01-0.236l0.099-2.731l0.086-2.729  c0.023-0.912,0.147-1.814,0.214-2.722l0.226-2.718c0.042-0.45,0.069-0.906,0.12-1.356l0.188-1.35  c0.871-7.209,2.377-14.326,4.559-21.229c4.327-13.817,11.159-26.819,20.057-38.218c8.883-11.405,19.83-21.194,32.14-28.696  c12.288-7.52,25.908-12.78,40.012-15.486l5.313-0.9l5.354-0.639c0.464-0.071,0.85-0.077,1.27-0.11l1.233-0.079l2.472-0.183  l0.617-0.051c0.216-0.014,0.38-0.039,0.667-0.039l1.569-0.036l3.142-0.059l1.57-0.031l0.249-0.008  c-0.06-0.002,0.679-0.006,0.144-0.002l-0.144,0.002c0,0,0,0,0.017,0.004l0.675,0.023l2.701,0.086l2.699,0.077l2.688,0.222  c1.787,0.153,3.583,0.253,5.354,0.541l2.672,0.352l1.33,0.169l1.327,0.246c14.155,2.329,27.787,7.394,40.135,14.619  c12.34,7.239,23.393,16.69,32.434,27.774c9.034,11.092,15.99,23.819,20.498,37.332c2.258,6.755,3.895,13.715,4.924,20.767  l0.662,5.307c0.104,1.623,0.23,3.25,0.368,4.877l0.047,0.611l0.018,0.782l0.037,1.573l0.071,3.141l0.027,1.367  c0.008,0.151,0.012,0.326,0.008,0.208l-0.008-0.208c-0.002-0.157-0.006-0.283-0.006,0.018l-0.014,0.324l-0.02,0.645l-0.073,2.592  c-0.285,6.894-1.279,13.737-3.04,20.368c-1.762,6.634-4.242,13.067-7.376,19.164c-12.414,24.515-36.033,43.101-62.734,49.218  l-2.501,0.57c-0.831,0.202-1.684,0.304-2.527,0.467l-2.526,0.45l-2.553,0.322c-0.843,0.097-1.724,0.226-2.53,0.309l-2.29,0.167  l-1.14,0.097l-0.571,0.051c-0.085,0.01-0.196,0.016-0.34,0.021l-0.392,0.008l-3.142,0.073l-1.568,0.039l-0.28,0.006h0.045  c-0.969,0.021-0.043,0-0.159,0.006l0.114-0.006l-0.6-0.016l-2.58-0.071c-1.727,0.01-3.429-0.2-5.142-0.309l-1.285-0.096  l-1.277-0.165l-2.546-0.324c-0.858-0.081-1.696-0.248-2.541-0.401l-2.528-0.449c-13.438-2.613-26.213-8.304-37.299-16.345  l-1.043-0.742l-1.011-0.798l-2.019-1.586c-1.336-1.067-2.593-2.234-3.907-3.337c-1.23-1.19-2.493-2.352-3.704-3.563l-1.765-1.864  c-0.596-0.621-1.191-1.232-1.733-1.893c-4.534-5.138-8.546-10.73-11.909-16.691c-3.364-5.954-6.084-12.273-8.063-18.822  c-0.978-3.275-1.846-6.597-2.47-9.964l-0.465-2.525c-0.183-0.839-0.24-1.699-0.366-2.547l-0.347-2.552  c-0.092-0.821-0.123-1.543-0.196-2.317l-0.217-2.291l-0.089-3.138l-0.074-2.545l0.045-2.446c0.013-0.406,0-0.813,0.026-1.224  l0.083-1.217l0.163-2.431l0.286-2.42c0.053-0.403,0.086-0.81,0.146-1.21l0.206-1.196c0.143-0.8,0.26-1.604,0.413-2.401l0.525-2.374  c0.152-0.8,0.379-1.578,0.598-2.362c0.219-0.776,0.402-1.57,0.651-2.34c0.523-1.537,0.972-3.099,1.598-4.598  c0.541-1.528,1.229-3.006,1.868-4.5c5.409-11.834,14.141-22.204,24.913-29.715c1.375-0.89,2.717-1.845,4.147-2.655  c1.39-0.876,2.859-1.613,4.305-2.397c0.722-0.389,1.481-0.703,2.22-1.063c0.744-0.355,1.482-0.717,2.247-1.012l2.274-0.955  l2.321-0.843l1.163-0.42l1.178-0.362l2.368-0.719l2.401-0.603c0.398-0.098,0.797-0.214,1.196-0.299l1.217-0.24  c0.812-0.153,1.622-0.336,2.435-0.479l2.459-0.359c0.4-0.051,0.843-0.14,1.205-0.171l1.077-0.104l1.078-0.116l0.538-0.059  c0.2-0.021,0.313-0.051,0.612-0.059l3.139-0.132l0.784-0.035l0.392-0.018c0.058,0,0.093-0.002,0.124-0.002h-0.249  c-0.178-0.006,0.511-0.01,0.249,0l1.004,0.006h2.503l2.498,0.132l1.25,0.061l1.241,0.131l2.485,0.256l2.471,0.383l1.238,0.187  l1.223,0.255c3.289,0.589,6.479,1.574,9.667,2.586c1.564,0.582,3.155,1.102,4.688,1.794c1.56,0.609,3.058,1.365,4.582,2.084  c0.757,0.352,1.478,0.788,2.225,1.177c0.738,0.395,1.491,0.784,2.196,1.236l2.167,1.305l2.103,1.407l1.054,0.709l1.014,0.754  c0.672,0.511,1.37,0.99,2.036,1.515c1.303,1.081,2.652,2.106,3.887,3.275c5.087,4.496,9.486,9.77,13.233,15.48  c0.888,1.456,1.827,2.89,2.621,4.405c0.872,1.478,1.584,3.032,2.356,4.566c0.379,0.77,0.686,1.572,1.039,2.352  c0.344,0.786,0.695,1.57,0.977,2.383l0.91,2.413l0.791,2.458l0.403,1.224l0.334,1.252l0.68,2.499l0.543,2.535l0.274,1.27  l0.206,1.281l0.427,2.57l0.287,2.592l0.146,1.301l0.245,3.926c0.132,3.557-0.053,7.131-0.599,10.653  c-0.547,3.525-1.437,7.007-2.673,10.389c-2.448,6.766-6.278,13.12-11.239,18.551c-2.472,2.724-5.219,5.215-8.197,7.418  c-2.983,2.211-6.186,4.122-9.558,5.735c-3.372,1.605-6.921,2.881-10.581,3.801c-0.918,0.202-1.836,0.445-2.763,0.626l-2.78,0.487  l-2.59,0.36l-3.419,0.235l-2.582,0.077l-2.877-0.06c-0.957-0.047-1.916-0.138-2.877-0.202c-0.958-0.078-1.907-0.229-2.868-0.336  c-3.813-0.534-7.595-1.45-11.275-2.743c-3.674-1.295-7.251-2.945-10.658-4.945c-3.404-2.001-6.623-4.354-9.616-7.003  c-5.98-5.306-11.597-13.034-11.597-13.034s-5.764-8.077-7.302-17.686c-1.53-9.608,1.538-19.434,8.651-19.777  c7.116-0.348,31.948,10.226,31.948,10.226c23.241,11.141,33.626,3.458,33.626,3.458c-15.678-0.037-28.526-18.537-28.137-19.685  c0.396-1.147,22.429-20.549,26.716-17.503c4.284,3.047,3.632,15.057,3.632,15.057s13.229-11.853,12.276-28.662  c0,0-24.994-12.314-54.969-3.36c-29.979,8.95-41.039,16.307-47.932,32.465c0,0-6.45,16.142,0.194,41.157  c6.644,25.014,35.772,43.841,45.299,48.255c4.765,2.208,9.763,3.953,14.907,5.193c1.29,0.278,2.58,0.585,3.88,0.827  c1.307,0.214,2.61,0.451,3.928,0.635c1.313,0.153,2.629,0.313,3.951,0.443l1.986,0.132l0.994,0.061l0.495,0.034l0.248,0.012  l0.126,0.01l0.061,0.004c0.151-0.004-0.249,0.006,0.355,0l3.431,0.064c0.124,0.01,0.314,0,0.491-0.004l0.535-0.018l1.07-0.037  l2.142-0.093c1.382-0.082,2.679-0.218,4.022-0.342c1.33-0.14,2.652-0.355,3.985-0.54c5.301-0.856,10.54-2.24,15.604-4.136  c10.129-3.785,19.527-9.652,27.507-17.119c7.962-7.488,14.497-16.602,19.04-26.717c4.535-10.115,7.052-18.624,7.341-29.772v-2.592  l0.014-3.663l-0.006-1.835l-0.08-1.831l-0.188-3.671l-0.359-3.665l-0.187-1.831l-0.263-1.824l-0.563-3.646l-0.727-3.624l-0.376-1.81  l-0.452-1.792c-0.312-1.193-0.61-2.394-0.94-3.584l-1.101-3.535c-0.354-1.189-0.778-2.348-1.205-3.507  c-0.434-1.159-0.833-2.333-1.309-3.472c-0.965-2.277-1.896-4.576-3.012-6.787c-1.037-2.254-2.252-4.417-3.442-6.592  c-9.841-17.234-24.448-31.816-41.986-41.6c-2.209-1.189-4.414-2.397-6.705-3.435c-2.252-1.116-4.592-2.045-6.912-3.01  c-1.171-0.472-2.364-0.869-3.545-1.299c-1.187-0.427-2.374-0.847-3.584-1.197l-3.623-1.084c-1.215-0.326-2.442-0.619-3.667-0.926  l-1.835-0.45l-1.855-0.368l-3.713-0.719l-3.741-0.544l-1.876-0.264l-1.88-0.179l-3.768-0.344l-3.775-0.161l-1.888-0.075  l-2.088,0.008l-3.139,0.025c-0.222-0.002-0.635,0.028-0.955,0.045l-1.027,0.053l-2.054,0.122l-2.055,0.138  c-0.682,0.045-1.271,0.129-1.909,0.194l-3.772,0.433c-1.256,0.173-2.505,0.395-3.758,0.599l-1.873,0.313  c-0.625,0.112-1.243,0.257-1.862,0.387l-3.725,0.81l-3.68,0.977l-1.839,0.503l-1.815,0.582c-4.874,1.47-9.583,3.429-14.197,5.563  c-2.281,1.128-4.575,2.238-6.777,3.521c-2.241,1.208-4.382,2.59-6.541,3.939c-17.071,11.135-31.006,27.01-39.94,45.462l-1.609,3.494  c-0.555,1.151-0.98,2.364-1.474,3.547c-0.996,2.364-1.795,4.804-2.626,7.229c-0.409,1.216-0.738,2.456-1.104,3.686  c-0.359,1.232-0.722,2.462-0.998,3.716l-0.884,3.747c-0.265,1.253-0.481,2.521-0.718,3.776l-0.346,1.895  c-0.106,0.633-0.179,1.267-0.269,1.904l-0.502,3.81c-0.126,1.277-0.219,2.55-0.333,3.826l-0.149,1.915  c-0.042,0.641-0.05,1.277-0.076,1.916l-0.113,3.838c-0.01-0.326-0.006,0.984,0,0.984l0.007,0.391l0.016,0.784l0.036,1.572  l0.066,3.138l0.258,3.975c0.103,1.309,0.177,2.681,0.31,3.94l0.448,3.684c0.171,1.223,0.271,2.452,0.502,3.671l0.634,3.654  c0.864,4.873,2.061,9.689,3.448,14.442c2.802,9.507,6.738,18.673,11.573,27.316c9.677,17.283,23.069,32.473,39.136,44.056  c16.019,11.614,34.59,19.826,54.05,23.604l3.651,0.65c1.224,0.217,2.441,0.438,3.671,0.574l3.678,0.468l1.841,0.222l1.848,0.147  c2.461,0.173,4.925,0.421,7.395,0.435l3.698,0.094l0.926,0.02c1.229-0.01,0.563-0.01,0.943-0.016l0.393-0.008l1.568-0.041  l3.14-0.083l0.393-0.012c0.118,0,0.264-0.008,0.444-0.02l0.994-0.072l1.988-0.136l3.978-0.313c1.273-0.132,2.468-0.301,3.702-0.452  c1.229-0.161,2.452-0.309,3.676-0.487l3.657-0.652c1.218-0.233,2.44-0.408,3.643-0.693l3.624-0.837  c9.624-2.307,19.02-5.636,27.925-9.975c8.894-4.348,17.312-9.653,25.064-15.782c7.754-6.132,14.863-13.078,21.131-20.724  c6.251-7.653,11.668-15.994,16.143-24.81c4.474-8.818,7.995-18.128,10.471-27.697c2.479-9.575,3.859-19.413,4.221-29.254l0.087-3.69  l0.016-0.921l0.01-0.464c0.006,0.322,0-0.963-0.006-0.967l-0.044-1.568l-0.086-3.144l-0.043-1.57l-0.024-0.783l-0.066-0.952  c-0.181-2.548-0.373-5.101-0.582-7.649l-0.921-7.16c-1.433-9.512-3.724-18.898-6.84-28.002  c-6.231-18.211-15.755-35.269-27.992-50.063c-12.248-14.784-27.132-27.356-43.789-36.88c-16.641-9.528-35.017-16.11-53.951-19.054  l-1.771-0.303l-1.78-0.222l-3.564-0.436c-2.374-0.332-4.76-0.476-7.141-0.645l-3.577-0.253l-3.583-0.081l-3.58-0.069l-0.891-0.016  c-0.054-0.006-1.231,0.014-0.915,0.014l-0.393,0.01L242,105.743l-3.139,0.096l-1.568,0.047c-0.237,0-0.595,0.031-0.902,0.053  l-0.948,0.071l-3.794,0.295l-1.898,0.153c-0.622,0.057-1.28,0.096-1.854,0.183l-7.113,0.941c-2.354,0.396-4.704,0.847-7.055,1.277  c-18.75,3.816-36.788,11.045-52.941,21.209c-8.077,5.078-15.707,10.868-22.729,17.307c-7.014,6.451-13.444,13.526-19.194,21.115  c-11.504,15.165-20.254,32.411-25.671,50.648c-0.635,2.293-1.294,4.574-1.884,6.879l-1.557,6.958  c-0.433,2.334-0.817,4.676-1.217,7.017c-0.219,1.169-0.326,2.352-0.478,3.525l-0.423,3.535l-0.209,1.769  c-0.061,0.589-0.086,1.181-0.134,1.774l-0.246,3.542c-0.066,1.181-0.186,2.364-0.206,3.545l-0.071,3.547l-0.056,3.553  c0,0.352-0.016-0.163,0,0.899l0.014,0.393l0.027,0.784l0.054,1.572l0.099,3.14l0.053,1.568l0.026,0.788l0.066,0.899l0.592,7.315  c0.053,0.602,0.093,1.232,0.166,1.808l0.229,1.735l0.463,3.464l0.473,3.457l0.628,3.437l0.641,3.435  c0.213,1.146,0.413,2.293,0.699,3.423l1.623,6.799c0.585,2.252,1.279,4.476,1.921,6.712c0.343,1.112,0.619,2.246,1.018,3.341  l1.146,3.301c0.765,2.194,1.481,4.413,2.396,6.555c3.322,8.699,7.472,17.058,12.132,25.087c2.277,4.051,4.874,7.902,7.438,11.771  l4.077,5.64c0.665,0.952,1.4,1.847,2.125,2.755l2.167,2.715c0.732,0.904,1.434,1.825,2.195,2.7l2.295,2.615  c1.542,1.729,3.032,3.503,4.674,5.138c1.616,1.657,3.205,3.347,4.861,4.97l5.061,4.755c6.889,6.186,14.237,11.856,21.945,16.97  c15.505,10.086,32.492,17.934,50.313,22.801l3.34,0.918c0.557,0.146,1.109,0.306,1.672,0.445l1.688,0.374l6.757,1.487  c4.548,0.774,9.081,1.623,13.669,2.068l3.432,0.399c1.143,0.153,2.293,0.173,3.438,0.266c2.3,0.154,4.595,0.326,6.89,0.434  l6.892,0.106l1.719,0.025c0.063,0.006,1.052-0.014,0.817-0.014l0.394-0.012l0.786-0.025l3.136-0.122l3.14-0.112  c0.268-0.016,0.513-0.016,0.798-0.035l0.898-0.07l1.794-0.149c2.381-0.199,4.802-0.376,7.145-0.631l6.83-0.938l1.705-0.237  l1.692-0.32l3.385-0.639c9.016-1.755,17.925-4.109,26.526-7.3c2.182-0.726,4.296-1.617,6.418-2.481  c2.128-0.865,4.262-1.696,6.323-2.7c2.071-0.977,4.169-1.908,6.215-2.932l6.081-3.201c8.008-4.448,15.677-9.461,22.934-15.01  c7.238-5.578,13.988-11.754,20.287-18.347c6.323-6.566,12.033-13.701,17.215-21.188c5.182-7.479,9.851-15.32,13.759-23.534  c1.045-2.016,1.936-4.108,2.843-6.189c0.904-2.085,1.846-4.152,2.609-6.294c0.794-2.13,1.639-4.238,2.386-6.384l2.099-6.475  c2.594-8.698,4.566-17.564,5.879-26.522c1.194-8.976,1.761-18.015,1.701-27.033l-0.008-2.358 M258.618,219.622l13.691,3.02  l-18.315,2.845L258.618,219.622z"
     id="path18" /></svg>
