<?xml version="1.0" encoding="UTF-8" standalone="no"?>

<svg
   xmlns:dc="http://purl.org/dc/elements/1.1/"
   xmlns:cc="http://creativecommons.org/ns#"
   xmlns:rdf="http://www.w3.org/1999/02/22-rdf-syntax-ns#"
   xmlns:svg="http://www.w3.org/2000/svg"
   xmlns="http://www.w3.org/2000/svg"
   xmlns:sodipodi="http://sodipodi.sourceforge.net/DTD/sodipodi-0.dtd"
   xmlns:inkscape="http://www.inkscape.org/namespaces/inkscape"
   version="1.1"
   id="snake"
   x="0px"
   y="0px"
   width="512px"
   height="512px"
   viewBox="0 0 512 512"
   enable-background="new 0 0 512 512"
   xml:space="preserve"
   inkscape:version="0.48.4 r9939"
   sodipodi:docname="razercfg-alt.svg"><metadata
     id="metadata23"><rdf:RDF><cc:Work
         rdf:about=""><dc:format>image/svg+xml</dc:format><dc:type
           rdf:resource="http://purl.org/dc/dcmitype/StillImage" /><dc:title></dc:title></cc:Work></rdf:RDF></metadata><defs
     id="defs21" /><sodipodi:namedview
     pagecolor="#ffffff"
     bordercolor="#666666"
     borderopacity="1"
     objecttolerance="10"
     gridtolerance="10"
     guidetolerance="10"
     inkscape:pageopacity="0"
     inkscape:pageshadow="2"
     inkscape:window-width="640"
     inkscape:window-height="480"
     id="namedview19"
     showgrid="false"
     inkscape:zoom="0.4609375"
     inkscape:cx="256"
     inkscape:cy="256"
     inkscape:window-x="65"
     inkscape:window-y="34"
     inkscape:window-maximized="0"
     inkscape:current-layer="snake" /><g
     id="g3"><path
       fill="#202021"
       d="M256,495.255c-63.907,0-123.989-24.887-169.178-70.076C41.633,379.989,16.746,319.907,16.746,256   c0-63.907,24.887-123.989,70.076-169.178C132.011,41.633,192.093,16.746,256,16.746c63.907,0,123.989,24.887,169.178,70.076   c45.189,45.189,70.076,105.271,70.076,169.178c0,63.907-24.887,123.989-70.076,169.178   C379.989,470.368,319.907,495.255,256,495.255z"
       id="path5" /><path
       fill="#66B32E"
       d="M256,26.746c30.958,0,60.979,6.059,89.229,18.008c27.298,11.545,51.816,28.079,72.878,49.139   c21.061,21.061,37.593,45.581,49.139,72.877c11.949,28.251,18.008,58.272,18.008,89.23c0,30.958-6.059,60.979-18.008,89.229   c-11.546,27.297-28.078,51.817-49.139,72.878c-21.062,21.061-45.581,37.594-72.878,49.14   c-28.25,11.949-58.271,18.008-89.229,18.008c-30.958,0-60.979-6.059-89.229-18.008c-27.297-11.546-51.816-28.079-72.877-49.14   c-21.061-21.061-37.594-45.581-49.139-72.878C32.805,316.979,26.746,286.958,26.746,256c0-30.958,6.059-60.979,18.008-89.23   c11.545-27.297,28.079-51.816,49.139-72.877c21.061-21.061,45.581-37.594,72.877-49.139C195.021,32.805,225.042,26.746,256,26.746    M256,6.746C118.341,6.746,6.746,118.341,6.746,256c0,137.658,111.595,249.254,249.254,249.254   c137.659,0,249.254-111.597,249.254-249.254C505.254,118.341,393.659,6.746,256,6.746L256,6.746z"
       id="path7" /></g><path
     fill="#66B32E"
     d="M212.224,176.557c61.44,29.452,88.891,9.146,88.891,9.146c-41.448-0.096-75.414-49-74.375-52.038  c1.039-3.037,59.287-54.323,70.62-46.272c11.331,8.053,9.598,39.809,9.598,39.809s34.982-31.335,32.45-75.77  c0,0-66.07-32.557-145.31-8.895C114.858,66.2,69.803,133.822,70.235,145.159c0.433,11.336,21.533,73.305,93.415,132.431  C61.439,166.109,212.224,176.557,212.224,176.557z"
     id="path9" /><path
     fill="#66B32E"
     d="M221.424,459.666c-0.644-15.003-32.209-61.167-110.46-124.778c-78.25-63.612-48.41-176.599-48.41-176.599  s15.682,65.458,94.095,128.87C235.061,350.568,220.743,444.665,221.424,459.666z"
     id="path11" /><path
     fill="#202021"
     d="M230.713,46.187l24.426-0.91l26.147,8.978c0,0-16.189,1.217-27.625,8.511L230.713,46.187z"
     id="path13" /><path
     fill="none"
     stroke="#66B32E"
     stroke-miterlimit="10"
     d="M147.212,303.565"
     id="path15" /><path
     fill="#66B32E"
     d="M217.472,476.625c-0.644-15.002-36.606-63.804-114.856-127.417c-78.25-63.61-51.048-175.719-51.048-175.719  S-31.82,393.857,217.472,476.625z"
     id="path17" /></svg>
